<svg width="1200" height="630" viewBox="0 0 1200 630" fill="none" xmlns="http://www.w3.org/2000/svg">
  <rect width="1200" height="630" fill="#0A0A0A"/>
  <rect x="48" y="48" width="1104" height="534" rx="28" fill="#111111" stroke="#262626"/>
  <rect x="88" y="88" width="1024" height="72" rx="20" fill="#141414" stroke="#262626"/>
  <text x="128" y="134" fill="#F5F5F7" font-family="'JetBrains Mono', monospace" font-size="28" font-weight="600">echoValue</text>
  <text x="305" y="134" fill="#6E6E73" font-family="'JetBrains Mono', monospace" font-size="28">cron parser</text>

  <text x="88" y="250" fill="#F5F5F7" font-family="Inter, sans-serif" font-size="74" font-weight="700">Cron Expression</text>
  <text x="88" y="325" fill="#F5F5F7" font-family="Inter, sans-serif" font-size="74" font-weight="700">Parser &amp; Explainer</text>
  <text x="88" y="385" fill="#A1A1A6" font-family="Inter, sans-serif" font-size="28">Five-field cron syntax, shortcuts, plain-language output, next runs.</text>

  <rect x="88" y="438" width="456" height="92" rx="20" fill="#141414" stroke="#262626"/>
  <text x="124" y="494" fill="#F5F5F7" font-family="'JetBrains Mono', monospace" font-size="38" font-weight="500">*/15 * * * *</text>

  <rect x="582" y="438" width="530" height="92" rx="20" fill="#141414" stroke="#262626"/>
  <text x="618" y="494" fill="#30D158" font-family="'JetBrains Mono', monospace" font-size="28" font-weight="600">Every 15 minutes</text>

  <circle cx="1030" cy="190" r="68" fill="#141414" stroke="#262626"/>
  <circle cx="1030" cy="190" r="42" stroke="#0A84FF" stroke-width="8"/>
  <path d="M1030 145V162" stroke="#F5F5F7" stroke-width="8" stroke-linecap="round"/>
  <path d="M1030 218V235" stroke="#F5F5F7" stroke-width="8" stroke-linecap="round"/>
  <path d="M1075 190H1058" stroke="#F5F5F7" stroke-width="8" stroke-linecap="round"/>
  <path d="M1002 190H985" stroke="#F5F5F7" stroke-width="8" stroke-linecap="round"/>
  <path d="M1030 190L1050 176" stroke="#0A84FF" stroke-width="8" stroke-linecap="round"/>
  <circle cx="1030" cy="190" r="6" fill="#F5F5F7"/>
</svg>
